<svg xmlns="http://www.w3.org/2000/svg" data-name="Layer 1" viewBox="0 0 100 125" x="0px" y="0px"><title>ALL</title><path d="M75,81C63.44,81,61.21,67.31,59.24,55.24,57.63,45.34,56.1,36,50,36s-7.55,9.31-9.17,19.16C38.85,67.27,36.59,81,25,81a1,1,0,0,1,0-2c9.89,0,11.91-12.29,13.86-24.17C40.62,44.12,42.28,34,50,34s9.46,10.16,11.21,20.92C63.14,66.76,65.14,79,75,79A1,1,0,0,1,75,81Z"/><path d="M80,81H20a1,1,0,0,1-1-1V20a1,1,0,0,1,2,0V79H80A1,1,0,0,1,80,81Z"/><text x="0" y="115" fill="#000000" font-size="5px" font-weight="bold" font-family="'Helvetica Neue', Helvetica, Arial-Unicode, Arial, Sans-serif">Created by KΛPKLΛM</text><text x="0" y="120" fill="#000000" font-size="5px" font-weight="bold" font-family="'Helvetica Neue', Helvetica, Arial-Unicode, Arial, Sans-serif">from the Noun Project</text></svg>